<svg width="350" xmlns="http://www.w3.org/2000/svg" viewBox="0 0 250 250">
  <defs>
    <g id="ghost">
      <path stroke="none" fill="#fff" d="M 20 10 Q 50 100 130 50, 60 120 70 220, 10 120 20 10 Z" />
      <circle stroke="none" fill="#fff" cx="75" cy="30" r="22" />
    </g>
    <path id="square" stroke="#fff" stroke-width="6" fill="none" d="M 60 20 L 160 20 Q 200 20 200 60 L 200 160 Q 200 200 160 200 L 60 200 Q 20 200 20 160 L 20 60 Q 20 20 60 20 Z" />
  </defs>
  <rect x="0" y="0" width="250" height="250" fill="#db133b" />
  <g transform="translate(60 -20)">
    <use href="#square" transform="rotate(20)" />
  </g>
  <g transform="translate(60 60)">
    <use href="#ghost" transform="scale(.6)" />
  </g>
  <g transform="translate(135 93)">
    <use href="#ghost" transform="scale(.45) rotate(35)" />
  </g>
  <g transform="translate(160 150)">
    <use href="#ghost" transform="scale(.3) rotate(70)" />
  </g>
</svg>